<svg id="Group_Light" data-name="Group Light" xmlns="http://www.w3.org/2000/svg" width="302" height="79" viewBox="0 0 302 79">
<defs>
    <style>
      .cls-1 {
        fill: #289ce7;
      }

      .cls-1, .cls-2, .cls-3, .cls-4, .cls-5 {
        fill-rule: evenodd;
      }

      .cls-2 {
        fill: gray;
      }

      .cls-3, .cls-4, .cls-5 {
        fill: none;
        stroke: gray;
        stroke-width: 1.922px;
      }

      .cls-3 {
        stroke-linecap: square;
      }

      .cls-4 {
        stroke-linecap: round;
      }
    </style>
  </defs>
  <path id="VECTOREAL_text_blue" data-name="VECTOREAL text blue" class="cls-1" d="M26.759,43.483l-7.7,20.333L11.531,43.483H0.088l13.336,34.8H23.876l13.336-34.8H26.759ZM51.1,69.433V64.86H64.438V56.408H51.1V52.332H66.286V43.483H40.65v34.8H66.871V69.433H51.1Zm35.577,9.644a18.2,18.2,0,0,0,8.2-1.79,15.558,15.558,0,0,0,5.947-5.17l-6.713-6.612q-2.929,4.077-6.893,4.076a6.717,6.717,0,0,1-5.361-2.361,9.4,9.4,0,0,1-2.027-6.339,9.4,9.4,0,0,1,2.027-6.338,6.719,6.719,0,0,1,5.361-2.361q3.964,0,6.893,4.076l6.713-6.612a15.565,15.565,0,0,0-5.947-5.17,18.2,18.2,0,0,0-8.2-1.79A17.711,17.711,0,0,0,77.669,45a16.4,16.4,0,0,0-6.285,6.463,19.275,19.275,0,0,0-2.275,9.421A19.271,19.271,0,0,0,71.384,70.3a16.394,16.394,0,0,0,6.285,6.463,17.711,17.711,0,0,0,9.011,2.312h0Zm26.236-.8h10.633V52.58h9.236v-9.1h-29.1v9.1h9.236v25.7Zm39.6,0.8a17.987,17.987,0,0,0,9.146-2.337,16.633,16.633,0,0,0,6.352-6.488,20.256,20.256,0,0,0,0-18.742,16.643,16.643,0,0,0-6.352-6.488,19.069,19.069,0,0,0-18.292,0,16.65,16.65,0,0,0-6.352,6.488,20.256,20.256,0,0,0,0,18.742,16.64,16.64,0,0,0,6.352,6.488,17.987,17.987,0,0,0,9.146,2.337h0Zm0-9.5a6.3,6.3,0,0,1-3.582-1.069,7.411,7.411,0,0,1-2.545-3.032,11.65,11.65,0,0,1,0-9.2,7.421,7.421,0,0,1,2.545-3.033,6.537,6.537,0,0,1,7.164,0,7.414,7.414,0,0,1,2.545,3.033,11.65,11.65,0,0,1,0,9.2,7.4,7.4,0,0,1-2.545,3.032,6.3,6.3,0,0,1-3.582,1.069h0Zm37.873-16.6a5.431,5.431,0,0,0-2.3-.448h-3.875v8.153H184.8L173.587,76.125V43.483H188.77a17.213,17.213,0,0,1,7.417,1.51Z"/>
  <path id="VECTOREAL_text_gray" data-name="VECTOREAL text gray" class="cls-2" d="M277.239,78.282v-34.8h10.632v25.7h14.237v9.1H277.239Zm-16.475-6.065H248.78l-2.117,6.065H235.85l13.786-34.8h10.453l13.786,34.8H262.882Zm-5.992-17.2-3.063,8.75h6.127ZM206.551,43.483h25.635v8.849H217v4.077h13.336V64.86H217v4.574h15.769v8.849H206.551v-34.8Zm-14.087,34.8-5.361-8.75h-2.884v8.75h-9.08l12.6-17.6h0.354a4.435,4.435,0,0,0,3.244-1.069,4.038,4.038,0,0,0,1.081-3.008,4.852,4.852,0,0,0-.365-1.947l6.1-8.527a20.477,20.477,0,0,1,3.226,3.514,13.462,13.462,0,0,1,1.757,6.96,13.3,13.3,0,0,1-1.532,6.512,11.287,11.287,0,0,1-4.415,4.424l6.623,10.738H192.464Z"/>
  <g id="pen_copy" data-name="pen copy">
    <path id="pen_outline" data-name="pen outline" class="cls-3" d="M221.034,1.909l9.37,6.205-3.844,5.728s-3.123,3.58-1.682,11.456L205.9,35.085,207.34,13.6A14.307,14.307,0,0,0,217.19,7.4C217.3,7.21,221.034,1.909,221.034,1.909Z"/>
    <path id="pen_inside" data-name="pen inside" class="cls-3" d="M206.138,34.369l9.611-14.32m1.2-3.819a2.148,2.148,0,1,1-2.162,2.148A2.155,2.155,0,0,1,216.95,16.23Z"/>
    <path id="pen_base" data-name="pen base" class="cls-4" d="M215.989,6.921l11.772,7.637"/>
  </g>
  <g id="vector_shapes" data-name="vector shapes">
    <path class="cls-3" d="M199.021,38.038h4.865v4.833h-4.865V38.038Z"/>
    <path id="Rectangle_1_copy" data-name="Rectangle 1 copy" class="cls-3" d="M239.894,37.656l3.058,3.038-3.058,3.038-3.058-3.038Z"/>
    <path id="Rectangle_1_copy_2" data-name="Rectangle 1 copy 2" class="cls-3" d="M167.818,37.656l3.058,3.038-3.058,3.038-3.058-3.038Z"/>
    <path id="Rectangle_1_copy_3" data-name="Rectangle 1 copy 3" class="cls-3" d="M185.493,12.708l4.343,0.82-0.826,4.314-4.343-.82Z"/>
    <path class="cls-5" d="M170.581,40.693h28.35"/>
    <path id="Shape_1_copy" data-name="Shape 1 copy" class="cls-5" d="M203.976,40.693h33.4"/>
    <path class="cls-5" d="M198.931,40.574s-15.617-4.614-12.013-23.151"/>
  </g>
</svg>
